<?xml version="1.0" standalone="no"?>
<!DOCTYPE svg PUBLIC "-//W3C//DTD SVG 20010904//EN"
 "http://www.w3.org/TR/2001/REC-SVG-20010904/DTD/svg10.dtd">
<svg version="1.0" xmlns="http://www.w3.org/2000/svg"
 width="236.000000pt" height="236.000000pt" viewBox="0 0 236.000000 236.000000"
 preserveAspectRatio="xMidYMid meet">
<metadata>
Created by potrace 1.14, written by Peter Selinger 2001-2017
</metadata>
<g transform="translate(0.000000,236.000000) scale(0.100000,-0.100000)"
fill="#000000" stroke="none">
<path d="M1490 1699 c-25 -4 -61 -10 -82 -14 -20 -3 -71 -17 -114 -30 -42 -14
-83 -25 -90 -25 -7 0 -27 14 -44 32 l-32 31 2 -29 c5 -66 1 -72 -55 -104 -30
-17 -55 -33 -55 -35 0 -2 21 3 47 11 68 21 87 18 122 -18 l32 -33 -2 35 c-1
19 -1 42 0 50 3 37 171 88 316 96 140 7 242 -52 278 -161 l14 -40 81 -1 c55 0
82 3 82 11 0 6 -7 34 -15 61 -33 112 -152 170 -350 171 -49 0 -110 -3 -135 -8z"/>
<path d="M872 1597 c1 -13 -5 -35 -15 -50 l-17 -27 29 0 c15 0 34 -7 41 -15
19 -23 30 -18 30 12 0 15 9 36 20 48 l20 22 -29 -5 c-20 -3 -35 2 -50 17 -27
27 -33 26 -29 -2z"/>
<path d="M90 1422 c-6 -2 0 -12 12 -23 18 -15 20 -18 7 -19 -13 0 -19 -18 -28
-82 -17 -115 -21 -139 -27 -170 -5 -25 -3 -28 23 -29 15 0 72 -1 125 -2 l97
-2 6 35 c3 19 8 48 11 64 l6 29 -27 -21 c-21 -17 -39 -21 -81 -20 -36 2 -54 6
-54 15 0 9 15 13 45 13 29 0 45 5 46 13 7 70 6 72 -33 71 -33 -1 -38 2 -38 23
0 21 4 23 47 23 37 0 53 -6 74 -26 l27 -25 6 33 c3 18 8 49 11 68 l6 36 -126
-1 c-69 0 -130 -2 -135 -3z"/>
<path d="M360 1416 c0 -5 5 -25 12 -43 12 -32 13 -33 73 -33 l60 0 -85 -84
c-66 -66 -86 -93 -91 -120 -4 -23 -2 -36 5 -37 57 -3 258 -1 262 4 3 3 8 23
10 44 3 21 6 46 8 56 4 16 3 16 -22 -1 -16 -11 -48 -19 -77 -20 l-50 -2 88 86
c70 69 87 92 87 115 0 16 0 32 0 36 0 4 -63 8 -140 8 -82 0 -140 -4 -140 -9z"/>
<path d="M689 1399 c-18 -16 -31 -41 -34 -63 -3 -20 -8 -53 -11 -73 -15 -102
-14 -120 11 -143 45 -43 251 -25 252 22 0 12 8 75 19 143 12 85 11 94 -12 116
-21 19 -36 23 -110 24 -81 1 -88 -1 -115 -26z m144 -74 c-1 -6 -5 -37 -8 -70
-4 -33 -9 -63 -11 -66 -5 -9 -73 -9 -78 0 -3 4 0 40 6 80 l12 72 40 -3 c23 -2
40 -8 39 -13z"/>
<path d="M972 1420 c-9 -6 -10 -15 -17 -82 -3 -29 -10 -78 -15 -108 -19 -117
-20 -130 -7 -131 6 0 25 -2 40 -3 37 -2 44 8 51 74 4 30 10 58 14 62 5 5 21
-21 37 -57 15 -36 32 -68 37 -71 12 -8 88 -11 88 -4 0 3 7 46 15 95 8 50 18
117 21 150 3 33 8 63 10 66 6 10 -17 16 -56 14 -34 -1 -35 -2 -43 -50 -4 -28
-8 -62 -9 -78 -1 -35 -6 -30 -48 56 -34 70 -36 72 -73 72 -20 1 -41 -2 -45 -5z"/>
<path d="M1265 1421 c-3 -2 2 -13 12 -23 14 -15 14 -18 1 -18 -11 0 -19 -31
-35 -140 -17 -125 -18 -140 -4 -141 41 -2 233 0 236 3 1 2 6 30 10 63 l7 60
-24 -22 c-18 -17 -34 -21 -76 -20 -63 2 -70 20 -9 27 42 5 43 6 46 47 l2 42
-40 -4 c-38 -4 -41 -2 -41 20 0 23 4 25 50 25 41 0 56 -5 75 -24 l25 -25 5 22
c2 12 6 42 7 66 l3 45 -123 1 c-68 0 -125 -1 -127 -4z"/>
<path d="M1748 1422 c-19 -4 -25 -22 -8 -22 9 0 7 -45 -4 -99 -3 -13 -8 -51
-11 -85 -3 -33 -8 -62 -10 -64 -6 -6 46 -52 59 -53 58 -3 195 -1 203 4 6 4 14
33 18 64 5 32 9 65 10 73 6 40 17 138 18 159 2 22 -2 25 -33 26 -53 2 -58 -2
-65 -58 -24 -193 -21 -187 -70 -185 -42 1 -42 7 -20 142 8 49 13 92 10 94 -6
6 -75 9 -97 4z"/>
<path d="M2076 1400 c-17 -14 -32 -30 -33 -36 -1 -5 -4 -34 -8 -64 -3 -29 -8
-57 -11 -61 -8 -14 14 -19 95 -20 71 -1 81 -3 81 -19 0 -16 -8 -18 -66 -16
-36 1 -68 -1 -73 -4 -15 -11 -53 -71 -48 -77 5 -4 194 -7 257 -4 9 1 16 9 17
19 0 9 4 45 8 78 6 56 5 64 -15 84 -19 19 -35 23 -85 24 -49 1 -62 4 -60 16 1
12 20 16 82 18 l80 3 13 34 c7 18 13 37 12 42 -1 4 -50 8 -108 8 -100 1 -108
0 -138 -25z"/>
<path d="M1524 1296 c-2 -6 -6 -25 -8 -43 l-3 -32 73 -3 c106 -4 118 0 122 45
2 20 0 38 -5 38 -48 7 -176 3 -179 -5z"/>
<path d="M589 1038 c-48 -129 -30 -228 53 -288 64 -47 136 -63 268 -63 284 -1
629 133 830 321 l55 51 -113 1 -113 0 -97 -58 c-176 -106 -329 -160 -507 -181
-67 -8 -82 -7 -168 4 -48 7 -105 35 -136 69 -29 31 -50 109 -45 165 2 22 2 41
0 41 -2 0 -14 -28 -27 -62z"/>
</g>
</svg>
